<?xml version="1.0" standalone="no"?>
<!DOCTYPE svg PUBLIC "-//W3C//DTD SVG 20010904//EN"
 "http://www.w3.org/TR/2001/REC-SVG-20010904/DTD/svg10.dtd">
<svg version="1.0" xmlns="http://www.w3.org/2000/svg"
 width="524.000000pt" height="524.000000pt" viewBox="0 0 524.000000 524.000000"
 preserveAspectRatio="xMidYMid meet">
<metadata>
Created by potrace 1.11, written by Peter Selinger 2001-2013
</metadata>
<g transform="translate(0.000000,524.000000) scale(0.100000,-0.100000)"
fill="#000000" stroke="none">
<path d="M2060 4403 c0 -5 -20 -38 -44 -75 -25 -38 -42 -68 -38 -68 4 0 2 -4
-3 -8 -6 -4 -26 -32 -45 -62 -18 -30 -46 -75 -62 -100 -15 -25 -28 -48 -28
-52 0 -5 -9 -17 -20 -28 -11 -11 -20 -27 -20 -35 0 -8 -5 -15 -11 -15 -5 0 -8
-4 -5 -9 4 -5 3 -11 -2 -13 -10 -4 -102 -153 -102 -166 0 -6 -3 -12 -7 -14
-10 -4 -44 -55 -63 -93 -8 -16 -22 -41 -32 -54 -10 -13 -15 -28 -11 -35 3 -6
2 -8 -2 -3 -9 7 -57 -68 -58 -90 0 -7 -4 -10 -8 -7 -5 3 -11 -7 -15 -21 -3
-14 -10 -25 -14 -25 -4 0 -10 -8 -14 -17 -3 -10 -23 -46 -45 -80 -21 -34 -36
-64 -33 -67 3 -3 0 -6 -5 -6 -6 0 -28 -28 -47 -62 -20 -35 -42 -72 -49 -82
-67 -107 -87 -141 -87 -153 0 -7 -4 -13 -8 -13 -5 0 -15 -12 -22 -27 -8 -16
-22 -39 -31 -53 -65 -98 -185 -360 -172 -374 4 -3 2 -6 -4 -6 -6 0 -14 -15
-17 -32 -3 -18 -9 -44 -13 -58 -4 -14 -8 -203 -10 -420 l-4 -395 33 -38 c18
-21 42 -40 53 -42 11 -2 22 -4 25 -5 3 -1 313 -3 690 -4 l685 -1 1 -200 c2
-255 0 -235 32 -272 15 -17 39 -46 53 -63 14 -17 35 -31 45 -30 10 0 278 3
594 6 316 3 582 8 590 11 8 3 21 7 29 9 20 4 77 70 80 91 1 10 3 108 4 218 l2
200 125 2 c69 0 132 3 140 5 51 13 86 63 98 137 6 32 7 252 4 616 -2 186 -3
200 -13 203 -5 2 -7 7 -4 12 3 5 -2 16 -11 24 -8 9 -12 16 -7 16 4 0 0 5 -9
11 -10 5 -21 9 -24 9 -4 -1 -10 4 -15 12 -6 9 -40 13 -126 15 -65 1 -133 3
-150 4 l-33 3 6 591 c2 324 6 746 8 938 l4 347 -879 0 c-483 0 -879 -3 -879
-7z m486 -1148 c3 -61 6 -272 6 -469 0 -293 -2 -360 -13 -367 -8 -4 -126 -10
-264 -14 -137 -3 -257 -6 -265 -7 -51 -4 -62 2 -56 27 4 14 24 54 46 89 21 35
36 67 33 70 -4 3 -2 6 4 6 5 0 18 18 29 40 10 22 22 40 27 40 4 0 7 7 7 15 0
8 4 15 9 15 5 0 13 10 17 22 3 12 28 56 55 97 27 40 46 78 42 84 -3 6 -1 7 5
3 6 -3 14 3 18 16 3 12 11 26 16 32 12 15 80 123 104 166 10 19 22 39 27 45
32 43 65 101 61 107 -3 4 -1 8 3 8 5 0 22 22 38 50 16 27 33 46 37 42 4 -4 10
-57 14 -117z"/>
</g>
</svg>
